<svg width="32" height="33" viewBox="0 0 32 33" fill="none" xmlns="http://www.w3.org/2000/svg">
<path d="M15.999 18.7033C14.6113 18.705 13.2659 18.2256 12.1919 17.3467C11.118 16.4679 10.3819 15.2439 10.109 13.8833C10.0872 13.74 10.0969 13.5937 10.1373 13.4545C10.1777 13.3152 10.2479 13.1865 10.3431 13.0771C10.4382 12.9677 10.5559 12.8803 10.6882 12.8209C10.8204 12.7616 10.964 12.7317 11.109 12.7333C11.3472 12.7299 11.5789 12.8116 11.7622 12.9637C11.9455 13.1159 12.0685 13.3285 12.109 13.5633C12.2973 14.4623 12.7893 15.269 13.5022 15.848C14.2151 16.427 15.1055 16.7431 16.024 16.7431C16.9424 16.7431 17.8329 16.427 18.5458 15.848C19.2587 15.269 19.7506 14.4623 19.939 13.5633C19.9795 13.3285 20.1024 13.1159 20.2858 12.9637C20.4691 12.8116 20.7007 12.7299 20.939 12.7333C21.0839 12.7317 21.2275 12.7616 21.3598 12.8209C21.492 12.8803 21.6098 12.9677 21.7049 13.0771C21.8 13.1865 21.8702 13.3152 21.9107 13.4545C21.9511 13.5937 21.9607 13.74 21.939 13.8833C21.6644 15.2524 20.921 16.4829 19.8367 17.3627C18.7524 18.2425 17.3952 18.7166 15.999 18.7033Z" fill="#274250"/>
<path d="M24.8975 31.8833H7.0975C6.69059 31.8838 6.28783 31.8016 5.91372 31.6415C5.53961 31.4815 5.20197 31.247 4.92134 30.9523C4.64071 30.6576 4.42296 30.309 4.28133 29.9275C4.1397 29.546 4.07716 29.1397 4.0975 28.7333L4.9075 11.4933C4.94103 10.7204 5.27184 9.99036 5.83085 9.45557C6.38987 8.92078 7.13387 8.62261 7.9075 8.62334H24.0875C24.8611 8.62261 25.6051 8.92078 26.1642 9.45557C26.7232 9.99036 27.054 10.7204 27.0875 11.4933L27.8975 28.7333C27.9178 29.1397 27.8553 29.546 27.7137 29.9275C27.5721 30.309 27.3543 30.6576 27.0737 30.9523C26.793 31.247 26.4554 31.4815 26.0813 31.6415C25.7072 31.8016 25.3044 31.8838 24.8975 31.8833ZM7.9075 10.6333C7.64229 10.6333 7.38793 10.7387 7.2004 10.9262C7.01286 11.1138 6.9075 11.3681 6.9075 11.6333L6.0975 28.8333C6.09072 28.9688 6.11157 29.1042 6.15878 29.2314C6.20599 29.3586 6.27857 29.4748 6.37211 29.573C6.46566 29.6712 6.5782 29.7494 6.70291 29.8027C6.82761 29.8561 6.96187 29.8835 7.0975 29.8833H24.8975C25.0331 29.8835 25.1674 29.8561 25.2921 29.8027C25.4168 29.7494 25.5294 29.6712 25.6229 29.573C25.7164 29.4748 25.789 29.3586 25.8362 29.2314C25.8834 29.1042 25.9043 28.9688 25.8975 28.8333L25.0875 11.5933C25.0875 11.3281 24.9821 11.0738 24.7946 10.8862C24.6071 10.6987 24.3527 10.5933 24.0875 10.5933L7.9075 10.6333Z" fill="#274250"/>
<path d="M21.9961 9.63333H19.9961V7.88333C19.9961 6.82247 19.5747 5.80505 18.8245 5.0549C18.0744 4.30476 17.057 3.88333 15.9961 3.88333C14.9352 3.88333 13.9178 4.30476 13.1677 5.0549C12.4175 5.80505 11.9961 6.82247 11.9961 7.88333V9.63333H9.99609V7.88333C9.99609 6.29203 10.6282 4.76591 11.7535 3.64069C12.8787 2.51547 14.4048 1.88333 15.9961 1.88333C17.5874 1.88333 19.1135 2.51547 20.2387 3.64069C21.364 4.76591 21.9961 6.29203 21.9961 7.88333V9.63333Z" fill="#274250"/>
</svg>
