<svg width="16" height="16" viewBox="0 0 16 16" fill="none" xmlns="http://www.w3.org/2000/svg">
<rect width="16" height="16" rx="2" fill="white"/>
<path d="M2.43576 7L1.86986 8.05579L1.29416 7H1V8.6999H1.33384V7.70196L1.78348 8.52066H1.9441L2.39654 7.67975L2.39841 8.6999H2.73179L2.72758 7H2.43576Z" fill="#ED1C24"/>
<path d="M4.11361 7L3.70226 7.75465L3.29231 7H2.91504L3.50989 8.09401V8.6999H3.86521V8.09814L4.46239 7H4.11361Z" fill="#ED1C24"/>
<path d="M5.75239 7.87035C5.69963 7.83471 5.64174 7.8063 5.57777 7.78512C5.51427 7.76395 5.4503 7.74535 5.3868 7.72934C5.3233 7.71333 5.26494 7.6968 5.21217 7.68079C5.15941 7.66477 5.11692 7.64308 5.08471 7.61622C5.05249 7.58936 5.03661 7.55424 5.03661 7.51033C5.03661 7.47314 5.04595 7.44008 5.0651 7.41219C5.08424 7.38378 5.11552 7.36105 5.15941 7.34298C5.2033 7.32541 5.2598 7.31612 5.32844 7.31612C5.39707 7.31612 5.46758 7.32696 5.53901 7.34866C5.61092 7.37035 5.68236 7.40393 5.75426 7.44938L5.86399 7.15083C5.79208 7.10072 5.70944 7.06302 5.61606 7.03771C5.52221 7.0124 5.42742 7 5.33077 7C5.18603 7 5.06556 7.02376 4.96985 7.0718C4.87413 7.11983 4.80222 7.18337 4.7546 7.26343C4.70697 7.34349 4.68316 7.43233 4.68316 7.52944C4.68316 7.62035 4.6995 7.69473 4.73265 7.7531C4.76534 7.81147 4.80829 7.85847 4.86105 7.89411C4.91382 7.92975 4.97171 7.95868 5.03568 7.9814C5.09918 8.00413 5.16315 8.02324 5.22665 8.03822C5.29015 8.05372 5.34851 8.06973 5.40128 8.08678C5.45404 8.10382 5.49653 8.12552 5.52874 8.15238C5.56096 8.17924 5.57683 8.21539 5.57683 8.26033C5.57683 8.29597 5.56656 8.32748 5.54602 8.35486C5.52547 8.38223 5.49372 8.40393 5.4503 8.41942C5.40734 8.43492 5.35038 8.44267 5.28034 8.44267C5.18836 8.44267 5.09685 8.42614 5.0072 8.39308C4.91708 8.36002 4.83911 8.31767 4.77327 8.2655L4.65234 8.56198C4.72098 8.62035 4.81203 8.66787 4.92455 8.70403C5.03708 8.7407 5.15521 8.75878 5.27801 8.75878C5.42415 8.75878 5.54555 8.7345 5.64127 8.68595C5.73699 8.6374 5.80936 8.57335 5.85745 8.49432C5.90554 8.41477 5.92982 8.32748 5.92982 8.23192C5.92982 8.14308 5.91348 8.06921 5.88033 8.01085C5.84765 7.95248 5.80469 7.90548 5.75193 7.86983L5.75239 7.87035Z" fill="#ED1C24"/>
<path d="M6.61488 7.48554C6.65877 7.43698 6.71059 7.39979 6.77083 7.37397C6.83059 7.34814 6.89689 7.33523 6.96833 7.33523C7.04444 7.33523 7.11447 7.35176 7.17891 7.38481C7.24334 7.41787 7.30171 7.46798 7.35447 7.53409L7.58279 7.30114C7.50948 7.20248 7.41937 7.12758 7.31151 7.07645C7.20412 7.02531 7.08366 7 6.95059 7C6.83059 7 6.71993 7.02169 6.61908 7.06457C6.51822 7.10744 6.42998 7.16839 6.35434 7.24793C6.27916 7.32748 6.22033 7.42045 6.17878 7.52738C6.13722 7.6343 6.11621 7.75155 6.11621 7.87965C6.11621 8.00775 6.13722 8.125 6.17878 8.23192C6.22033 8.33884 6.2787 8.43182 6.3534 8.51136C6.42811 8.59091 6.51636 8.65186 6.61814 8.69473C6.71993 8.7376 6.83012 8.7593 6.94872 8.7593C7.08319 8.7593 7.20459 8.73347 7.31198 8.68182C7.41937 8.63017 7.50995 8.55475 7.58326 8.4561L7.35494 8.22314C7.30217 8.29132 7.24381 8.34194 7.17938 8.375C7.11494 8.40806 7.0449 8.42459 6.9688 8.42459C6.89689 8.42459 6.83106 8.41167 6.77129 8.38585C6.71106 8.36002 6.65923 8.32283 6.61534 8.27428C6.57145 8.22572 6.53737 8.16839 6.51309 8.10176C6.48881 8.03512 6.47667 7.96178 6.47667 7.88068C6.47667 7.79959 6.48881 7.72624 6.51309 7.65961C6.53737 7.59349 6.57145 7.53564 6.61534 7.48709L6.61488 7.48554Z" fill="#ED1C24"/>
<path d="M9.82952 8.92355H9.44851L9.27856 9.14256L8.56091 8.21694C8.64542 8.2061 8.72199 8.18543 8.78923 8.15289C8.88868 8.10434 8.96572 8.03409 9.01989 7.94267C9.07405 7.85124 9.10113 7.74225 9.10113 7.61622C9.10113 7.49019 9.07405 7.3781 9.01989 7.28616C8.96572 7.1937 8.88915 7.12293 8.78923 7.07386C8.68978 7.02428 8.57118 7 8.43344 7H7.76855V8.72882H8.12434V8.22624H8.18738L9.08712 9.38998L8.61414 10H8.99747L9.27809 9.63688L9.55871 10H9.94251L9.46906 9.38946L9.82905 8.92407L9.82952 8.92355ZM8.12434 7.91219V7.31973H8.4143C8.52402 7.31973 8.60573 7.34556 8.66036 7.39721C8.71452 7.44886 8.74161 7.52169 8.74161 7.6157C8.74161 7.70971 8.71452 7.78048 8.66036 7.83316C8.6062 7.88585 8.52402 7.91219 8.4143 7.91219H8.12434Z" fill="#ED1C24"/>
<path d="M10.2972 7H9.94141V8.6999H10.2972V7Z" fill="#ED1C24"/>
<path d="M11.6965 7.07386C11.597 7.02428 11.4784 7 11.3407 7H10.6758V8.6999H11.0316V8.23141H11.3411C11.4789 8.23141 11.597 8.20661 11.6969 8.15754C11.7964 8.10795 11.8734 8.03719 11.9276 7.94525C11.9817 7.85279 12.0088 7.7438 12.0088 7.61725C12.0088 7.4907 11.9817 7.37913 11.9276 7.28719C11.8734 7.19473 11.7968 7.12397 11.6969 7.0749L11.6965 7.07386ZM11.5671 7.83264C11.513 7.8843 11.4308 7.91012 11.3211 7.91012H11.0311V7.32025H11.3211C11.4308 7.32025 11.5125 7.34607 11.5671 7.39773C11.6213 7.44938 11.6484 7.52221 11.6484 7.61622C11.6484 7.71023 11.6213 7.78048 11.5671 7.83213V7.83264Z" fill="#ED1C24"/>
<path d="M12.1934 7.32076H12.685V8.6999H13.0408V7.32076H13.5325V7H12.1934V7.32076Z" fill="#ED1C24"/>
<path d="M14.9511 8.01136C14.9184 7.953 14.8755 7.90599 14.8227 7.87035C14.7699 7.83471 14.712 7.8063 14.6481 7.78512C14.5846 7.76395 14.5206 7.74535 14.4571 7.72934C14.3936 7.71333 14.3352 7.6968 14.2825 7.68079C14.2297 7.66477 14.1872 7.64308 14.155 7.61622C14.1228 7.58936 14.1069 7.55424 14.1069 7.51033C14.1069 7.47314 14.1163 7.44008 14.1354 7.41219C14.1546 7.38378 14.1858 7.36105 14.2297 7.34298C14.2736 7.32541 14.3301 7.31612 14.3987 7.31612C14.4674 7.31612 14.5379 7.32696 14.6093 7.34866C14.6812 7.37035 14.7527 7.40393 14.8246 7.44938L14.9343 7.15083C14.8624 7.10072 14.7798 7.06302 14.6864 7.03771C14.5925 7.0124 14.4977 7 14.4011 7C14.2563 7 14.1359 7.02376 14.0402 7.0718C13.9444 7.11983 13.8725 7.18337 13.8249 7.26343C13.7773 7.34349 13.7535 7.43233 13.7535 7.52944C13.7535 7.62035 13.7698 7.69473 13.803 7.7531C13.8356 7.81147 13.8786 7.85847 13.9314 7.89411C13.9841 7.92975 14.042 7.95868 14.106 7.9814C14.1695 8.00413 14.2335 8.02324 14.297 8.03822C14.3605 8.05372 14.4188 8.06973 14.4716 8.08678C14.5243 8.10382 14.5668 8.12552 14.5991 8.15238C14.6313 8.17924 14.6471 8.21539 14.6471 8.26033C14.6471 8.29597 14.6369 8.32748 14.6163 8.35486C14.5958 8.38223 14.564 8.40393 14.5206 8.41942C14.4777 8.43492 14.4207 8.44267 14.3507 8.44267C14.2587 8.44267 14.1672 8.42614 14.0775 8.39308C13.9874 8.36002 13.9094 8.31767 13.8436 8.2655L13.7227 8.56198C13.7913 8.62035 13.8823 8.66787 13.9949 8.70403C14.1074 8.7407 14.2255 8.75878 14.3483 8.75878C14.4945 8.75878 14.6159 8.7345 14.7116 8.68595C14.8073 8.6374 14.8797 8.57335 14.9278 8.49432C14.9759 8.41477 15.0001 8.32748 15.0001 8.23192C15.0001 8.14308 14.9838 8.06921 14.9506 8.01085L14.9511 8.01136Z" fill="#ED1C24"/>
</svg>
