<svg width="48" height="48" viewBox="0 0 48 48" fill="none" xmlns="http://www.w3.org/2000/svg">
<rect width="48" height="48" rx="2" fill="white"/>
<path d="M8.10216 20L6.48531 22.6395L4.84044 20H4V24.2497H4.95383V21.7549L6.23851 23.8017H6.69742L7.9901 21.6994L7.99543 24.2497H8.94794L8.93593 20H8.10216Z" fill="#ED1C24"/>
<path d="M12.8952 20L11.7199 21.8866L10.5486 20H9.4707L11.1703 22.735V24.2497H12.1855V22.7454L13.8917 20H12.8952Z" fill="#ED1C24"/>
<path d="M17.5776 22.1759C17.4268 22.0868 17.2614 22.0158 17.0786 21.9628C16.8972 21.9099 16.7144 21.8634 16.533 21.8233C16.3516 21.7833 16.1848 21.742 16.0341 21.702C15.8833 21.6619 15.7619 21.6077 15.6699 21.5405C15.5778 21.4734 15.5325 21.3856 15.5325 21.2758C15.5325 21.1829 15.5592 21.1002 15.6139 21.0305C15.6686 20.9595 15.7579 20.9026 15.8833 20.8574C16.0087 20.8135 16.1701 20.7903 16.3663 20.7903C16.5624 20.7903 16.7638 20.8174 16.9679 20.8716C17.1733 20.9259 17.3775 21.0098 17.5829 21.1235L17.8964 20.3771C17.6909 20.2518 17.4548 20.1575 17.188 20.0943C16.9199 20.031 16.6491 20 16.3729 20C15.9594 20 15.6152 20.0594 15.3417 20.1795C15.0682 20.2996 14.8628 20.4584 14.7267 20.6586C14.5907 20.8587 14.5226 21.0808 14.5226 21.3236C14.5226 21.5509 14.5693 21.7368 14.664 21.8827C14.7574 22.0287 14.8801 22.1462 15.0309 22.2353C15.1816 22.3244 15.347 22.3967 15.5298 22.4535C15.7112 22.5103 15.894 22.5581 16.0754 22.5956C16.2569 22.6343 16.4236 22.6743 16.5744 22.7169C16.7251 22.7596 16.8465 22.8138 16.9386 22.8809C17.0306 22.9481 17.076 23.0385 17.076 23.1508C17.076 23.2399 17.0466 23.3187 16.9879 23.3871C16.9292 23.4556 16.8385 23.5098 16.7144 23.5486C16.5917 23.5873 16.429 23.6067 16.2288 23.6067C15.966 23.6067 15.7046 23.5653 15.4484 23.4827C15.191 23.4001 14.9682 23.2942 14.7801 23.1637L14.4346 23.905C14.6307 24.0509 14.8908 24.1697 15.2123 24.2601C15.5338 24.3518 15.8713 24.397 16.2222 24.397C16.6397 24.397 16.9866 24.3363 17.2601 24.2149C17.5335 24.0935 17.7403 23.9334 17.8777 23.7358C18.0151 23.5369 18.0845 23.3187 18.0845 23.0798C18.0845 22.8577 18.0378 22.673 17.9431 22.5271C17.8497 22.3812 17.727 22.2637 17.5762 22.1746L17.5776 22.1759Z" fill="#ED1C24"/>
<path d="M20.041 21.2138C20.1664 21.0925 20.3144 20.9995 20.4865 20.9349C20.6573 20.8704 20.8467 20.8381 21.0508 20.8381C21.2683 20.8381 21.4684 20.8794 21.6525 20.962C21.8366 21.0447 22.0033 21.1699 22.1541 21.3352L22.8064 20.7528C22.597 20.5062 22.3395 20.319 22.0313 20.1911C21.7245 20.0633 21.3803 20 21.0001 20C20.6573 20 20.3411 20.0542 20.053 20.1614C19.7648 20.2686 19.5127 20.421 19.2966 20.6198C19.0818 20.8187 18.9137 21.0511 18.795 21.3184C18.6762 21.5857 18.6162 21.8789 18.6162 22.1991C18.6162 22.5194 18.6762 22.8125 18.795 23.0798C18.9137 23.3471 19.0805 23.5795 19.2939 23.7784C19.5073 23.9773 19.7595 24.1296 20.0503 24.2368C20.3411 24.344 20.656 24.3982 20.9948 24.3982C21.379 24.3982 21.7258 24.3337 22.0327 24.2045C22.3395 24.0754 22.5983 23.8869 22.8077 23.6402L22.1554 23.0579C22.0047 23.2283 21.8379 23.3549 21.6538 23.4375C21.4697 23.5201 21.2696 23.5615 21.0522 23.5615C20.8467 23.5615 20.6586 23.5292 20.4879 23.4646C20.3158 23.4001 20.1677 23.3071 20.0423 23.1857C19.9169 23.0643 19.8195 22.921 19.7501 22.7544C19.6808 22.5878 19.6461 22.4044 19.6461 22.2017C19.6461 21.999 19.6808 21.8156 19.7501 21.649C19.8195 21.4837 19.9169 21.3391 20.0423 21.2177L20.041 21.2138Z" fill="#ED1C24"/>
<path d="M29.2273 24.8089H28.1387L27.6531 25.3564L25.6027 23.0424C25.8442 23.0152 26.063 22.9636 26.2551 22.8822C26.5392 22.7608 26.7593 22.5852 26.9141 22.3567C27.0688 22.1281 27.1462 21.8556 27.1462 21.5405C27.1462 21.2255 27.0688 20.9452 26.9141 20.7154C26.7593 20.4842 26.5406 20.3073 26.2551 20.1847C25.9709 20.0607 25.6321 20 25.2385 20H23.3389V24.3221H24.3554V23.0656H24.5355L27.1062 25.9749L25.7548 27.5H26.85L27.6518 26.5922L28.4536 27.5H29.5501L28.1974 25.9737L29.226 24.8102L29.2273 24.8089ZM24.3554 22.2805V20.7993H25.1838C25.4973 20.7993 25.7308 20.8639 25.8869 20.993C26.0416 21.1222 26.119 21.3042 26.119 21.5393C26.119 21.7743 26.0416 21.9512 25.8869 22.0829C25.7321 22.2146 25.4973 22.2805 25.1838 22.2805H24.3554Z" fill="#ED1C24"/>
<path d="M30.5634 20H29.5469V24.2497H30.5634V20Z" fill="#ED1C24"/>
<path d="M34.5598 20.1847C34.2756 20.0607 33.9368 20 33.5432 20H31.6436V24.2497H32.6601V23.0785H33.5446C33.9381 23.0785 34.2756 23.0165 34.5611 22.8939C34.8452 22.7699 35.0654 22.593 35.2201 22.3631C35.3748 22.132 35.4522 21.8595 35.4522 21.5431C35.4522 21.2268 35.3748 20.9478 35.2201 20.718C35.0654 20.4868 34.8466 20.3099 34.5611 20.1872L34.5598 20.1847ZM34.1902 22.0816C34.0355 22.2107 33.8007 22.2753 33.4872 22.2753H32.6588V20.8006H33.4872C33.8007 20.8006 34.0341 20.8652 34.1902 20.9943C34.345 21.1235 34.4223 21.3055 34.4223 21.5405C34.4223 21.7756 34.345 21.9512 34.1902 22.0803V22.0816Z" fill="#ED1C24"/>
<path d="M35.9795 20.8019H37.3842V24.2497H38.4008V20.8019H39.8055V20H35.9795V20.8019Z" fill="#ED1C24"/>
<path d="M43.8595 22.5284C43.7661 22.3825 43.6433 22.265 43.4926 22.1759C43.3418 22.0868 43.1764 22.0158 42.9937 21.9628C42.8122 21.9099 42.6295 21.8634 42.448 21.8233C42.2666 21.7833 42.0999 21.742 41.9491 21.702C41.7984 21.6619 41.677 21.6077 41.5849 21.5405C41.4929 21.4734 41.4475 21.3856 41.4475 21.2758C41.4475 21.1829 41.4742 21.1002 41.5289 21.0305C41.5836 20.9595 41.673 20.9026 41.7984 20.8574C41.9238 20.8135 42.0852 20.7903 42.2813 20.7903C42.4774 20.7903 42.6788 20.8174 42.8829 20.8716C43.0884 20.9259 43.2925 21.0098 43.4979 21.1235L43.8114 20.3771C43.606 20.2518 43.3699 20.1575 43.1031 20.0943C42.8349 20.031 42.5641 20 42.288 20C41.8744 20 41.5302 20.0594 41.2568 20.1795C40.9833 20.2996 40.7778 20.4584 40.6418 20.6586C40.5057 20.8587 40.4377 21.0808 40.4377 21.3236C40.4377 21.5509 40.4843 21.7368 40.5791 21.8827C40.6724 22.0287 40.7952 22.1462 40.9459 22.2353C41.0967 22.3244 41.2621 22.3967 41.4449 22.4535C41.6263 22.5103 41.809 22.5581 41.9905 22.5956C42.1719 22.6343 42.3387 22.6743 42.4894 22.7169C42.6401 22.7596 42.7615 22.8138 42.8536 22.8809C42.9456 22.9481 42.991 23.0385 42.991 23.1508C42.991 23.2399 42.9616 23.3187 42.9029 23.3871C42.8443 23.4556 42.7535 23.5098 42.6295 23.5486C42.5067 23.5873 42.344 23.6067 42.1439 23.6067C41.8811 23.6067 41.6196 23.5653 41.3635 23.4827C41.106 23.4001 40.8832 23.2942 40.6951 23.1637L40.3496 23.905C40.5457 24.0509 40.8058 24.1697 41.1273 24.2601C41.4489 24.3518 41.7864 24.397 42.1372 24.397C42.5548 24.397 42.9016 24.3363 43.1751 24.2149C43.4486 24.0935 43.6553 23.9334 43.7928 23.7358C43.9302 23.5369 43.9995 23.3187 43.9995 23.0798C43.9995 22.8577 43.9528 22.673 43.8581 22.5271L43.8595 22.5284Z" fill="#ED1C24"/>
</svg>
