<svg width="16" height="16" viewBox="0 0 16 16" fill="none" xmlns="http://www.w3.org/2000/svg">
<rect width="16" height="16" fill="white"/>
<path d="M7.45703 5.29663L5.43703 8.7033L3.38203 5.29663H2.33203V10.7816H3.5237V7.56163L5.1287 10.2033H5.70203L7.31703 7.48996L7.3237 10.7816H8.5137L8.4987 5.29663H7.45703Z" fill="#ED1C24"/>
<path d="M13.0185 8.00428C12.8258 7.88945 12.6143 7.79792 12.3806 7.72969C12.1486 7.66145 11.915 7.60154 11.683 7.54995C11.451 7.49836 11.2378 7.44511 11.0451 7.39351C10.8523 7.34192 10.6971 7.27203 10.5794 7.18549C10.4617 7.09895 10.4038 6.98578 10.4038 6.84432C10.4038 6.7245 10.4379 6.61799 10.5078 6.52812C10.5777 6.43659 10.692 6.36336 10.8523 6.30511C11.0127 6.24853 11.2191 6.21858 11.4698 6.21858C11.7205 6.21858 11.9781 6.25352 12.239 6.32342C12.5017 6.39332 12.7627 6.50149 13.0253 6.64794L13.4262 5.68603C13.1635 5.5246 12.8616 5.40311 12.5205 5.32156C12.1776 5.24001 11.8314 5.20007 11.4783 5.20007C10.9496 5.20007 10.5095 5.27663 10.1598 5.4314C9.81018 5.58617 9.54751 5.79087 9.37354 6.04883C9.19956 6.30678 9.11257 6.59302 9.11257 6.9059C9.11257 7.1988 9.17227 7.43845 9.29337 7.62651C9.41277 7.81456 9.56969 7.96601 9.76243 8.08084C9.95516 8.19567 10.1667 8.28886 10.4003 8.36209C10.6323 8.43532 10.866 8.49689 11.098 8.54515C11.3299 8.59508 11.5431 8.64667 11.7359 8.70159C11.9286 8.75651 12.0838 8.82641 12.2015 8.91295C12.3192 8.99949 12.3772 9.11598 12.3772 9.26077C12.3772 9.3756 12.3397 9.47712 12.2646 9.56532C12.1896 9.65352 12.0736 9.72342 11.915 9.77335C11.758 9.82327 11.55 9.84824 11.2941 9.84824C10.9581 9.84824 10.6238 9.79498 10.2963 9.68847C9.9671 9.58196 9.68226 9.4455 9.44176 9.27741L9 10.2327C9.25073 10.4207 9.58333 10.5738 9.99439 10.6903C10.4055 10.8085 10.837 10.8667 11.2856 10.8667C11.8194 10.8667 12.2629 10.7885 12.6126 10.6321C12.9622 10.4756 13.2266 10.2693 13.4023 10.0147C13.578 9.75837 13.6667 9.47712 13.6667 9.16924C13.6667 8.88299 13.607 8.64501 13.4859 8.45695C13.3665 8.26889 13.2096 8.11745 13.0168 8.00262L13.0185 8.00428Z" fill="#ED1C24"/>
</svg>
