<svg width="48" height="48" viewBox="0 0 48 48" fill="none" xmlns="http://www.w3.org/2000/svg">
<rect width="48" height="48" fill="white"/>
<path d="M22.375 15.2899L16.315 25.5099L10.15 15.2899H7V31.7449H10.575V22.0849L15.39 30.0099H17.11L21.955 21.8699L21.975 31.7449H25.545L25.5 15.2899H22.375Z" fill="#ED1C24"/>
<path d="M39.0556 23.4126C38.4773 23.0681 37.8428 22.7935 37.1418 22.5888C36.4459 22.3841 35.7449 22.2044 35.049 22.0496C34.3531 21.8949 33.7134 21.7351 33.1352 21.5803C32.557 21.4256 32.0914 21.2159 31.7383 20.9562C31.3852 20.6966 31.2113 20.3571 31.2113 19.9327C31.2113 19.5733 31.3136 19.2537 31.5234 18.9841C31.7332 18.7095 32.076 18.4899 32.557 18.3151C33.038 18.1454 33.6572 18.0555 34.4094 18.0555C35.1615 18.0555 35.9342 18.1604 36.7171 18.37C37.5051 18.5797 38.288 18.9043 39.076 19.3436L40.2785 16.4579C39.4905 15.9736 38.5848 15.6091 37.5614 15.3645C36.5329 15.1198 35.4942 15 34.4349 15C32.8487 15 31.5285 15.2297 30.4795 15.694C29.4306 16.1583 28.6425 16.7724 28.1206 17.5463C27.5987 18.3201 27.3377 19.1789 27.3377 20.1175C27.3377 20.9962 27.5168 21.7151 27.8801 22.2793C28.2383 22.8435 28.7091 23.2978 29.2873 23.6423C29.8655 23.9868 30.5 24.2664 31.201 24.486C31.8969 24.7057 32.598 24.8905 33.2939 25.0352C33.9898 25.185 34.6294 25.3398 35.2076 25.5046C35.7858 25.6693 36.2515 25.879 36.6045 26.1386C36.9576 26.3982 37.1316 26.7477 37.1316 27.1821C37.1316 27.5266 37.019 27.8311 36.7939 28.0957C36.5687 28.3604 36.2208 28.57 35.7449 28.7198C35.2741 28.8696 34.6499 28.9445 33.8823 28.9445C32.8743 28.9445 31.8713 28.7847 30.8889 28.4652C29.9013 28.1457 29.0468 27.7363 28.3253 27.232L27 30.0978C27.7522 30.662 28.75 31.1213 29.9832 31.4708C31.2164 31.8253 32.511 32 33.8567 32C35.4583 32 36.7887 31.7653 37.8377 31.296C38.8867 30.8267 39.6798 30.2076 40.2069 29.4438C40.7339 28.6749 41 27.8311 41 26.9075C41 26.0488 40.8209 25.3348 40.4576 24.7706C40.0994 24.2065 39.6287 23.7521 39.0504 23.4076L39.0556 23.4126Z" fill="#ED1C24"/>
</svg>
