<svg width="32" height="33" viewBox="0 0 32 33" fill="none" xmlns="http://www.w3.org/2000/svg">
<path d="M27.96 8.76875L16.96 2.75C16.6661 2.5876 16.3358 2.50242 16 2.50242C15.6642 2.50242 15.3339 2.5876 15.04 2.75L4.04 8.77125C3.72586 8.94313 3.46363 9.1962 3.28069 9.50403C3.09775 9.81186 3.00081 10.1632 3 10.5212V22.4762C3.00081 22.8343 3.09775 23.1856 3.28069 23.4935C3.46363 23.8013 3.72586 24.0544 4.04 24.2262L15.04 30.2475C15.3339 30.4099 15.6642 30.4951 16 30.4951C16.3358 30.4951 16.6661 30.4099 16.96 30.2475L27.96 24.2262C28.2741 24.0544 28.5364 23.8013 28.7193 23.4935C28.9023 23.1856 28.9992 22.8343 29 22.4762V10.5225C28.9999 10.1638 28.9032 9.81169 28.7203 9.50314C28.5373 9.19459 28.2747 8.94094 27.96 8.76875ZM16 4.5L26.0425 10L22.3213 12.0375L12.2775 6.5375L16 4.5ZM16 15.5L5.9575 10L10.195 7.68L20.2375 13.18L16 15.5ZM5 11.75L15 17.2225V27.9463L5 22.4775V11.75ZM27 22.4725L17 27.9463V17.2275L21 15.0387V19.5C21 19.7652 21.1054 20.0196 21.2929 20.2071C21.4804 20.3946 21.7348 20.5 22 20.5C22.2652 20.5 22.5196 20.3946 22.7071 20.2071C22.8946 20.0196 23 19.7652 23 19.5V13.9438L27 11.75V22.4713V22.4725Z" fill="#ED1C24"/>
</svg>
