<svg width="32" height="33" viewBox="0 0 32 33" fill="none" xmlns="http://www.w3.org/2000/svg">
<path d="M27.5 20.5C27.5 20.7967 27.412 21.0867 27.2472 21.3334C27.0824 21.58 26.8481 21.7723 26.574 21.8858C26.2999 21.9993 25.9983 22.0291 25.7074 21.9712C25.4164 21.9133 25.1491 21.7704 24.9393 21.5607C24.7296 21.3509 24.5867 21.0836 24.5288 20.7926C24.4709 20.5017 24.5007 20.2001 24.6142 19.926C24.7277 19.6519 24.92 19.4176 25.1666 19.2528C25.4133 19.088 25.7033 19 26 19C26.3978 19 26.7794 19.158 27.0607 19.4393C27.342 19.7206 27.5 20.1022 27.5 20.5ZM26.9312 25.4112C26.7116 26.8273 25.9932 28.1182 24.9057 29.0513C23.8181 29.9844 22.433 30.4982 21 30.5H18C16.4092 30.4983 14.884 29.8657 13.7592 28.7408C12.6343 27.616 12.0017 26.0908 12 24.5V19.4363C10.0669 19.1927 8.28915 18.2521 7.00033 16.7909C5.71152 15.3297 5.00024 13.4484 5 11.5V5.5C5 5.23478 5.10536 4.98043 5.29289 4.79289C5.48043 4.60536 5.73478 4.5 6 4.5H9C9.26522 4.5 9.51957 4.60536 9.70711 4.79289C9.89464 4.98043 10 5.23478 10 5.5C10 5.76522 9.89464 6.01957 9.70711 6.20711C9.51957 6.39464 9.26522 6.5 9 6.5H7V11.5C6.99993 12.2947 7.15773 13.0815 7.46425 13.8147C7.77077 14.5479 8.2199 15.213 8.78555 15.7712C9.3512 16.3294 10.0221 16.7697 10.7593 17.0664C11.4965 17.3632 12.2854 17.5106 13.08 17.5C16.3438 17.4575 19 14.7188 19 11.3962V6.5H17C16.7348 6.5 16.4804 6.39464 16.2929 6.20711C16.1054 6.01957 16 5.76522 16 5.5C16 5.23478 16.1054 4.98043 16.2929 4.79289C16.4804 4.60536 16.7348 4.5 17 4.5H20C20.2652 4.5 20.5196 4.60536 20.7071 4.79289C20.8946 4.98043 21 5.23478 21 5.5V11.3962C21 15.5012 17.9338 18.9325 14 19.435V24.5C14 25.5609 14.4214 26.5783 15.1716 27.3284C15.9217 28.0786 16.9391 28.5 18 28.5H21C21.9084 28.4985 22.7893 28.1884 23.4983 27.6207C24.2074 27.0529 24.7025 26.2611 24.9025 25.375C23.6948 25.1037 22.6306 24.3941 21.916 23.3835C21.2013 22.3729 20.8869 21.1331 21.0336 19.904C21.1803 18.6749 21.7776 17.5439 22.7101 16.7299C23.6426 15.9159 24.8439 15.4767 26.0815 15.4972C27.3191 15.5178 28.5051 15.9968 29.41 16.8414C30.3149 17.686 30.8743 18.8362 30.98 20.0694C31.0858 21.3027 30.7303 22.5314 29.9824 23.5177C29.2345 24.504 28.1473 25.1778 26.9312 25.4088V25.4112ZM29 20.5C29 19.9067 28.8241 19.3266 28.4944 18.8333C28.1648 18.3399 27.6962 17.9554 27.1481 17.7284C26.5999 17.5013 25.9967 17.4419 25.4147 17.5576C24.8328 17.6734 24.2982 17.9591 23.8787 18.3787C23.4591 18.7982 23.1734 19.3328 23.0576 19.9147C22.9419 20.4967 23.0013 21.0999 23.2284 21.6481C23.4554 22.1962 23.8399 22.6648 24.3333 22.9944C24.8266 23.3241 25.4067 23.5 26 23.5C26.7956 23.5 27.5587 23.1839 28.1213 22.6213C28.6839 22.0587 29 21.2956 29 20.5Z" fill="#ED1C24"/>
</svg>
