<svg width="150" height="38" viewBox="0 0 150 38" fill="none" xmlns="http://www.w3.org/2000/svg">
<g clip-path="url(#clip0_388_7670)">
<path d="M15.375 8.6175L9.315 18.8375L3.15 8.6175H0V25.0725H3.575V15.4125L8.39 23.3375H10.11L14.955 15.1975L14.975 25.0725H18.545L18.5 8.6175H15.375Z" fill="#ED1C24"/>
<path d="M34.4405 8.6175L30.0355 15.9225L25.6455 8.6175H21.6055L27.9755 19.2075V25.0725H31.7805V19.2475L38.1755 8.6175H34.4405Z" fill="#ED1C24"/>
<path d="M51.3396 16.7526C50.7746 16.4076 50.1546 16.1326 49.4696 15.9276C48.7896 15.7226 48.1046 15.5426 47.4246 15.3876C46.7446 15.2326 46.1196 15.0726 45.5546 14.9176C44.9896 14.7626 44.5346 14.5526 44.1896 14.2926C43.8446 14.0326 43.6746 13.6926 43.6746 13.2676C43.6746 12.9076 43.7746 12.5876 43.9796 12.3176C44.1846 12.0426 44.5196 11.8226 44.9896 11.6476C45.4596 11.4776 46.0646 11.3876 46.7996 11.3876C47.5346 11.3876 48.2896 11.4926 49.0546 11.7026C49.8246 11.9126 50.5896 12.2376 51.3596 12.6776L52.5346 9.78761C51.7646 9.30261 50.8796 8.93761 49.8796 8.69261C48.8746 8.44761 47.8596 8.32761 46.8246 8.32761C45.2746 8.32761 43.9846 8.55761 42.9596 9.02261C41.9346 9.48761 41.1646 10.1026 40.6546 10.8776C40.1446 11.6526 39.8896 12.5126 39.8896 13.4526C39.8896 14.3326 40.0646 15.0526 40.4196 15.6176C40.7696 16.1826 41.2296 16.6376 41.7946 16.9826C42.3596 17.3276 42.9796 17.6076 43.6646 17.8276C44.3446 18.0476 45.0296 18.2326 45.7096 18.3776C46.3896 18.5276 47.0146 18.6826 47.5796 18.8476C48.1446 19.0126 48.5996 19.2226 48.9446 19.4826C49.2896 19.7426 49.4596 20.0926 49.4596 20.5276C49.4596 20.8726 49.3496 21.1776 49.1296 21.4426C48.9096 21.7076 48.5696 21.9176 48.1046 22.0676C47.6446 22.2176 47.0346 22.2926 46.2846 22.2926C45.2996 22.2926 44.3196 22.1326 43.3596 21.8126C42.3946 21.4926 41.5596 21.0826 40.8546 20.5776L39.5596 23.4476C40.2946 24.0126 41.2696 24.4726 42.4746 24.8226C43.6796 25.1776 44.9446 25.3526 46.2596 25.3526C47.8246 25.3526 49.1246 25.1176 50.1496 24.6476C51.1746 24.1776 51.9496 23.5576 52.4646 22.7926C52.9796 22.0226 53.2396 21.1776 53.2396 20.2526C53.2396 19.3926 53.0646 18.6776 52.7096 18.1126C52.3596 17.5476 51.8996 17.0926 51.3346 16.7476L51.3396 16.7526Z" fill="#ED1C24"/>
<path d="M61.59 13.0375C62.06 12.5675 62.615 12.2075 63.26 11.9575C63.9 11.7075 64.61 11.5825 65.375 11.5825C66.19 11.5825 66.94 11.7425 67.63 12.0625C68.32 12.3825 68.945 12.8675 69.51 13.5075L71.955 11.2525C71.17 10.2975 70.205 9.5725 69.05 9.0775C67.9 8.5825 66.61 8.3375 65.185 8.3375C63.9 8.3375 62.715 8.5475 61.635 8.9625C60.555 9.3775 59.61 9.9675 58.8 10.7375C57.995 11.5075 57.365 12.4075 56.92 13.4425C56.475 14.4775 56.25 15.6125 56.25 16.8525C56.25 18.0925 56.475 19.2275 56.92 20.2625C57.365 21.2975 57.99 22.1975 58.79 22.9675C59.59 23.7375 60.535 24.3275 61.625 24.7425C62.715 25.1575 63.895 25.3675 65.165 25.3675C66.605 25.3675 67.905 25.1175 69.055 24.6175C70.205 24.1175 71.175 23.3875 71.96 22.4325L69.515 20.1775C68.95 20.8375 68.325 21.3275 67.635 21.6475C66.945 21.9675 66.195 22.1275 65.38 22.1275C64.61 22.1275 63.905 22.0025 63.265 21.7525C62.62 21.5025 62.065 21.1425 61.595 20.6725C61.125 20.2025 60.76 19.6475 60.5 19.0025C60.24 18.3575 60.11 17.6475 60.11 16.8625C60.11 16.0775 60.24 15.3675 60.5 14.7225C60.76 14.0825 61.125 13.5225 61.595 13.0525L61.59 13.0375Z" fill="#ED1C24"/>
<path d="M98.475 8.6175H94.665V25.0725H98.475V8.6175Z" fill="#ED1C24"/>
<path d="M114.74 9.33751C113.675 8.85751 112.405 8.62251 110.93 8.62251H103.81V25.0775H107.62V20.5425H110.935C112.41 20.5425 113.675 20.3025 114.745 19.8275C115.81 19.3475 116.635 18.6625 117.215 17.7725C117.795 16.8775 118.085 15.8225 118.085 14.5975C118.085 13.3725 117.795 12.2925 117.215 11.4025C116.635 10.5075 115.815 9.82251 114.745 9.34751L114.74 9.33751ZM113.355 16.6825C112.775 17.1825 111.895 17.4325 110.72 17.4325H107.615V11.7225H110.72C111.895 11.7225 112.77 11.9725 113.355 12.4725C113.935 12.9725 114.225 13.6775 114.225 14.5875C114.225 15.4975 113.935 16.1775 113.355 16.6775V16.6825Z" fill="#ED1C24"/>
<path d="M119.91 11.7225H125.175V25.0725H128.985V11.7225H134.25V8.6175H119.91V11.7225Z" fill="#ED1C24"/>
<path d="M149.47 18.1176C149.12 17.5526 148.66 17.0976 148.095 16.7526C147.53 16.4076 146.91 16.1326 146.225 15.9276C145.545 15.7226 144.86 15.5426 144.18 15.3876C143.5 15.2326 142.875 15.0726 142.31 14.9176C141.745 14.7626 141.29 14.5526 140.945 14.2926C140.6 14.0326 140.43 13.6926 140.43 13.2676C140.43 12.9076 140.53 12.5876 140.735 12.3176C140.94 12.0426 141.275 11.8226 141.745 11.6476C142.215 11.4776 142.82 11.3876 143.555 11.3876C144.29 11.3876 145.045 11.4926 145.81 11.7026C146.58 11.9126 147.345 12.2376 148.115 12.6776L149.29 9.78761C148.52 9.30261 147.635 8.93761 146.635 8.69261C145.63 8.44761 144.615 8.32761 143.58 8.32761C142.03 8.32761 140.74 8.55761 139.715 9.02261C138.69 9.48761 137.92 10.1026 137.41 10.8776C136.9 11.6526 136.645 12.5126 136.645 13.4526C136.645 14.3326 136.82 15.0526 137.175 15.6176C137.525 16.1826 137.985 16.6376 138.55 16.9826C139.115 17.3276 139.735 17.6076 140.42 17.8276C141.1 18.0476 141.785 18.2326 142.465 18.3776C143.145 18.5276 143.77 18.6826 144.335 18.8476C144.9 19.0126 145.355 19.2226 145.7 19.4826C146.045 19.7426 146.215 20.0926 146.215 20.5276C146.215 20.8726 146.105 21.1776 145.885 21.4426C145.665 21.7076 145.325 21.9176 144.86 22.0676C144.4 22.2176 143.79 22.2926 143.04 22.2926C142.055 22.2926 141.075 22.1326 140.115 21.8126C139.15 21.4926 138.315 21.0826 137.61 20.5776L136.315 23.4476C137.05 24.0126 138.025 24.4726 139.23 24.8226C140.435 25.1776 141.7 25.3526 143.015 25.3526C144.58 25.3526 145.88 25.1176 146.905 24.6476C147.93 24.1776 148.705 23.5576 149.22 22.7926C149.735 22.0226 149.995 21.1776 149.995 20.2526C149.995 19.3926 149.82 18.6776 149.465 18.1126L149.47 18.1176Z" fill="#ED1C24"/>
<path d="M98.0202 27.2475H93.9402L92.1202 29.3675L84.4352 20.4075C85.3402 20.3025 86.1602 20.1025 86.8802 19.7875C87.9452 19.3175 88.7702 18.6375 89.3502 17.7525C89.9302 16.8675 90.2202 15.8125 90.2202 14.5925C90.2202 13.3725 89.9302 12.2875 89.3502 11.3975C88.7702 10.5025 87.9502 9.8175 86.8802 9.3425C85.8152 8.8625 84.5452 8.6275 83.0702 8.6275H75.9502V25.3625H79.7602V20.4975H80.4352L90.0702 31.7625L85.0052 37.6675H89.1102L92.1152 34.1525L95.1202 37.6675H99.2302L94.1602 31.7575L98.0152 27.2525L98.0202 27.2475ZM79.7602 17.4575V11.7225H82.8652C84.0402 11.7225 84.9152 11.9725 85.5002 12.4725C86.0802 12.9725 86.3702 13.6775 86.3702 14.5875C86.3702 15.4975 86.0802 16.1825 85.5002 16.6925C84.9202 17.2025 84.0402 17.4575 82.8652 17.4575H79.7602Z" fill="#ED1C24"/>
</g>
<defs>
<clipPath id="clip0_388_7670">
<rect width="150" height="29.325" fill="white" transform="translate(0 8.3375)"/>
</clipPath>
</defs>
</svg>
